<svg width="600" height="400" viewBox="0 0 600 400" xmlns="http://www.w3.org/2000/svg">
  <rect width="100%" height="100%" fill="white" />

  <style>
    .line { stroke: #333; stroke-width: 1.5; }
    .node { fill: white; stroke: #000; stroke-width: 2; }
  </style>

  <g class="connections">
    <line x1="180" y1="60" x2="270" y2="130" class="line" />
    <line x1="180" y1="60" x2="270" y2="200" class="line" />
    <line x1="180" y1="60" x2="270" y2="270" class="line" />
    
    <line x1="180" y1="130" x2="270" y2="130" class="line" />
    <line x1="180" y1="130" x2="270" y2="200" class="line" />
    <line x1="180" y1="130" x2="270" y2="270" class="line" />

    <line x1="180" y1="200" x2="270" y2="130" class="line" />
    <line x1="180" y1="200" x2="270" y2="200" class="line" />
    <line x1="180" y1="200" x2="270" y2="270" class="line" />

    <line x1="180" y1="270" x2="270" y2="130" class="line" />
    <line x1="180" y1="270" x2="270" y2="200" class="line" />
    <line x1="180" y1="270" x2="270" y2="270" class="line" />

    <line x1="180" y1="340" x2="270" y2="130" class="line" />
    <line x1="180" y1="340" x2="270" y2="200" class="line" />
    <line x1="180" y1="340" x2="270" y2="270" class="line" />

    <line x1="330" y1="130" x2="420" y2="60" class="line" />
    <line x1="330" y1="130" x2="420" y2="130" class="line" />
    <line x1="330" y1="130" x2="420" y2="200" class="line" />
    <line x1="330" y1="130" x2="420" y2="270" class="line" />
    <line x1="330" y1="130" x2="420" y2="340" class="line" />

    <line x1="330" y1="200" x2="420" y2="60" class="line" />
    <line x1="330" y1="200" x2="420" y2="130" class="line" />
    <line x1="330" y1="200" x2="420" y2="200" class="line" />
    <line x1="330" y1="200" x2="420" y2="270" class="line" />
    <line x1="330" y1="200" x2="420" y2="340" class="line" />

    <line x1="330" y1="270" x2="420" y2="60" class="line" />
    <line x1="330" y1="270" x2="420" y2="130" class="line" />
    <line x1="330" y1="270" x2="420" y2="200" class="line" />
    <line x1="330" y1="270" x2="420" y2="270" class="line" />
    <line x1="330" y1="270" x2="420" y2="340" class="line" />
  </g>

  <g class="nodes">
    <circle cx="150" cy="60" r="30" class="node" />
    <circle cx="150" cy="130" r="30" class="node" />
    <circle cx="150" cy="200" r="30" class="node" />
    <circle cx="150" cy="270" r="30" class="node" />
    <circle cx="150" cy="340" r="30" class="node" />

    <circle cx="300" cy="130" r="30" class="node" />
    <circle cx="300" cy="200" r="30" class="node" />
    <circle cx="300" cy="270" r="30" class="node" />

    <circle cx="450" cy="60" r="30" class="node" />
    <circle cx="450" cy="130" r="30" class="node" />
    <circle cx="450" cy="200" r="30" class="node" />
    <circle cx="450" cy="270" r="30" class="node" />
    <circle cx="450" cy="340" r="30" class="node" />
  </g>
</svg>